<svg id="visual" viewBox="0 0 900 600" width="900" height="600" xmlns="http://www.w3.org/2000/svg" xmlns:xlink="http://www.w3.org/1999/xlink" version="1.1"><rect x="0" y="0" width="900" height="600" fill="#002233"></rect><path d="M0 380L21.5 376.5C43 373 86 366 128.8 371.3C171.7 376.7 214.3 394.3 257.2 396.5C300 398.7 343 385.3 385.8 378.7C428.7 372 471.3 372 514.2 383.3C557 394.7 600 417.3 642.8 419.2C685.7 421 728.3 402 771.2 391C814 380 857 377 878.5 375.5L900 374L900 601L878.5 601C857 601 814 601 771.2 601C728.3 601 685.7 601 642.8 601C600 601 557 601 514.2 601C471.3 601 428.7 601 385.8 601C343 601 300 601 257.2 601C214.3 601 171.7 601 128.8 601C86 601 43 601 21.5 601L0 601Z" fill="#042960"></path><path d="M0 399L21.5 398.8C43 398.7 86 398.3 128.8 399C171.7 399.7 214.3 401.3 257.2 413.8C300 426.3 343 449.7 385.8 460.7C428.7 471.7 471.3 470.3 514.2 457.2C557 444 600 419 642.8 417.2C685.7 415.3 728.3 436.7 771.2 444.3C814 452 857 446 878.5 443L900 440L900 601L878.5 601C857 601 814 601 771.2 601C728.3 601 685.7 601 642.8 601C600 601 557 601 514.2 601C471.3 601 428.7 601 385.8 601C343 601 300 601 257.2 601C214.3 601 171.7 601 128.8 601C86 601 43 601 21.5 601L0 601Z" fill="#0a3674"></path><path d="M0 473L21.5 477.5C43 482 86 491 128.8 485C171.7 479 214.3 458 257.2 450.2C300 442.3 343 447.7 385.8 457C428.7 466.3 471.3 479.7 514.2 479.8C557 480 600 467 642.8 461.5C685.7 456 728.3 458 771.2 457.8C814 457.7 857 455.3 878.5 454.2L900 453L900 601L878.5 601C857 601 814 601 771.2 601C728.3 601 685.7 601 642.8 601C600 601 557 601 514.2 601C471.3 601 428.7 601 385.8 601C343 601 300 601 257.2 601C214.3 601 171.7 601 128.8 601C86 601 43 601 21.5 601L0 601Z" fill="#104488"></path><path d="M0 523L21.5 524C43 525 86 527 128.8 529.8C171.7 532.7 214.3 536.3 257.2 529C300 521.7 343 503.3 385.8 501.5C428.7 499.7 471.3 514.3 514.2 523C557 531.7 600 534.3 642.8 529.2C685.7 524 728.3 511 771.2 505.7C814 500.3 857 502.7 878.5 503.8L900 505L900 601L878.5 601C857 601 814 601 771.2 601C728.3 601 685.7 601 642.8 601C600 601 557 601 514.2 601C471.3 601 428.7 601 385.8 601C343 601 300 601 257.2 601C214.3 601 171.7 601 128.8 601C86 601 43 601 21.5 601L0 601Z" fill="#14539d"></path><path d="M0 538L21.5 538.2C43 538.3 86 538.7 128.8 538.5C171.7 538.3 214.3 537.7 257.2 537.3C300 537 343 537 385.8 542.2C428.7 547.3 471.3 557.7 514.2 557.3C557 557 600 546 642.8 540C685.7 534 728.3 533 771.2 531.8C814 530.7 857 529.3 878.5 528.7L900 528L900 601L878.5 601C857 601 814 601 771.2 601C728.3 601 685.7 601 642.8 601C600 601 557 601 514.2 601C471.3 601 428.7 601 385.8 601C343 601 300 601 257.2 601C214.3 601 171.7 601 128.8 601C86 601 43 601 21.5 601L0 601Z" fill="#1662b3"></path></svg>